<svg xmlns="http://www.w3.org/2000/svg" viewBox="0 0 841.9 595.3"><g fill="#61DAFB"><path d="M666.3 296.5c0-58.5-47.3-106.5-105.4-106.5-29.7 0-57 12.6-75.8 32.9 2.6-14.9 4.2-30.1 4.2-45.6 0-87.3-70.8-158.1-158.1-158.1-87.3 0-158.1 70.8-158.1 158.1 0 15.5 1.6 30.7 4.2 45.6C288.6 206.1 261.3 193.5 231.7 193.5c-58.1 0-105.4 48-105.4 106.5 0 29.7 12.6 57 32.9 75.8-14.9-2.6-30.1-4.2-45.6-4.2-87.3 0-158.1 70.8-158.1 158.1s70.8 158.1 158.1 158.1c15.5 0 30.7-1.6 45.6-4.2-20.3 18.8-32.9 46.1-32.9 75.8 0 58.1 48 105.4 106.5 105.4 29.7 0 57-12.6 75.8-32.9-2.6 14.9-4.2 30.1-4.2 45.6 0 87.3 70.8 158.1 158.1 158.1 87.3 0 158.1-70.8 158.1-158.1 0-15.5-1.6-30.7-4.2-45.6 20.3 18.8 46.1 32.9 75.8 32.9 58.1 0 105.4-48 105.4-106.5 0-29.7-12.6-57-32.9-75.8 14.9 2.6 30.1 4.2 45.6 4.2 87.3 0 158.1-70.8 158.1-158.1S754.3 296.5 666.3 296.5zM561.8 853.6c-33.7 0-61.1-27.4-61.1-61.1 0-33.7 27.4-61.1 61.1-61.1s61.1 27.4 61.1 61.1c0 33.7-27.4 61.1-61.1 61.1zm77.9-813.6c0 33.7-27.4 61.1-61.1 61.1-33.7 0-61.1-27.4-61.1-61.1s27.4-61.1 61.1-61.1 61.1 27.4 61.1 61.1zm-257.6 1137.2c-58.1 0-105.4 47.3-105.4 105.4s47.3 105.4 105.4 105.4 105.4-47.3 105.4-105.4-47.3-105.4-105.4-105.4zm0-342.8c-58.1 0-105.4 47.3-105.4 105.4s47.3 105.4 105.4 105.4 105.4-47.3 105.4-105.4-47.3-105.4-105.4-105.4zm0-342.8C282.9 440.3 235.6 392.9 235.6 334.8s47.3-105.4 105.4-105.4 105.4 47.3 105.4 105.4-47.3 105.4-105.4 105.4zm385.2-342.8c-58.1 0-105.4 47.3-105.4 105.4s47.3 105.4 105.4 105.4 105.4-47.3 105.4-105.4-47.3-105.4-105.4-105.4z"/></g></svg>
